<?xml version="1.0" encoding="utf-8"?>
<!-- Generator: Adobe Illustrator 17.1.0, SVG Export Plug-In . SVG Version: 6.00 Build 0)  -->
<!DOCTYPE svg PUBLIC "-//W3C//DTD SVG 1.1//EN" "http://www.w3.org/Graphics/SVG/1.1/DTD/svg11.dtd">
<svg version="1.1" id="Layer_1" xmlns="http://www.w3.org/2000/svg" xmlns:xlink="http://www.w3.org/1999/xlink" x="0px" y="0px"
	 viewBox="0 0 677.474 772.718" enable-background="new 0 0 677.474 772.718" xml:space="preserve">
<g>
	<path fill="#FFFFFF" d="M503.874,273.167c13.171,12.115,24.56,22.211,35.466,32.804c4.53,4.4,8.895,5.156,14.41,2.772
		c2.074-0.897,4.393-1.667,6.615-1.707c9.257-0.167,11.165-0.95,13.886-10.169c3.467-11.749,8.238-22.463,18.099-30.287
		c0.763-0.605,1.331-1.489,1.89-2.311c4.219-6.204,3.632-10.819-2.186-15.531c-2.84-2.3-6.065-4.128-8.88-6.454
		c-13.273-10.969-26.55-21.939-39.646-33.118c-5.296-4.521-10.141-9.57-15.181-14.39c-3.752-3.588-7.488-7.193-11.025-10.594
		c0.956-1.61,1.162-2.343,1.646-2.716c20.725-15.984,39.284-34.785,62.354-47.728c7.3-4.095,12.756-13.947,8.962-20.169
		c-6.813-11.173-15.359-21.417-24.119-31.21c-3.371-3.768-12.563,0.161-17.011,5.997c-2.203,2.891-3.888,6.471-6.687,8.563
		c-12.191,9.113-24.681,17.827-37.115,26.611c-4.214,2.977-8.583,5.732-14.622,9.745c-1.524-16.269-3.063-30.66-4.141-45.086
		c-0.524-7.012-3.405-10.156-10.185-7.842c-4.421,1.509-8.407,5.024-11.894,8.366c-5.557,5.327-11.522,8.459-19.48,7.87
		c-6.237-0.462-9.967,2.705-11.193,8.791c-0.585,2.907-0.743,5.952-0.683,8.927c0.173,8.637,0.608,17.269,0.842,25.905
		c0.738,27.255,1.477,54.51,2.111,81.767c0.188,8.084,0.029,16.176,0.029,24.062c-1.745,0.187-2.117,0.345-2.373,0.234
		c-1.518-0.656-2.988-1.424-4.512-2.064c-17.105-7.185-33.54-8.132-48.461,5.192c-2.726,2.434-5.558,4.75-8.343,7.118
		c-8.743,7.436-17.864,4.494-19.471-6.722c-3.065-21.391,0.185-41.272,12.797-59.724c6.525-9.545,14.935-13.641,25.374-15.512
		c2.276-0.408,4.651-0.232,6.975-0.404c7.715-0.573,11.379-3.271,11.537-10.772c0.097-4.641-1.379-9.983-3.922-13.842
		c-3.214-4.876-8.259-8.537-12.466-12.769c-4.695-4.723-10.263-6.723-16.983-6.987c-5.446-0.214-11.357,1.654-16.404-2.384
		c-0.645-0.516-2.661,0.091-3.69,0.737c-14.232,8.943-27.263,19.246-34.152,35.158c-5.796,13.386-11.34,26.927-16.068,40.718
		c-6.525,19.034-9.609,38.664-7.315,58.901c1.404,12.387,4.393,24.527,10.926,34.981c8.752,14.002,19.583,25.955,38.823,23.717
		c3.879-0.451,7.924,0.73,11.904,0.916c17.572,0.82,33.4-4.348,47.524-14.593c10.639-7.717,18.973-17.508,24.722-29.434
		c0.845-1.753,2.359-3.183,3.563-4.762c1.731,8.271,2.237,15.859,1.566,23.341c-0.51,5.678,1.125,9.64,5.609,12.787
		c1.513,1.062,3.116,2.138,4.272,3.541c5.313,6.446,9.569,7.601,17.39,4.917c4.962-1.702,10.021-3.174,15.118-4.417
		c7.656-1.867,15.459-3.158,23.054-5.231c5.969-1.629,7.607-4.265,7.015-10.11c-0.299-2.947-1.348-5.819-2.074-8.722
		C506.805,284.792,505.528,279.741,503.874,273.167z"/>
	<path fill="#FFFFFF" d="M348.495,655.295c4.599,7.183,7.996,13.224,12.091,18.746c11.994,16.175,39.719,24.863,59.133,18.596
		c11.004-3.552,21.79-7.79,32.827-11.231c11.347-3.538,20.172-10.076,26.275-20.211c6.82-11.327,10.004-23.921,11.575-36.839
		c2.931-24.105-4.427-46.186-15.696-66.833c-10.816-19.817-27.959-31.592-50.787-34.328c-1.292-0.155-2.541-0.759-3.784-1.222
		c-16.987-6.322-31.289-1.309-43.976,10.434c-8.329,7.709-14.864,16.726-20.739,26.467c-11.554,19.158-17.062,39.384-13.497,61.724
		c1.146,7.184,2.302,14.366,3.453,21.549c-2.473-1.092-4.037-2.422-4.859-4.113c-3.04-6.256-5.796-12.649-8.731-18.957
		c-3.575-7.685-9.343-8.948-14.365-2.313c-3.917,5.175-9.087,7.915-14.576,9.889c-10.932,3.931-22.084,7.332-33.309,10.339
		c-10.676,2.86-24.937-7.298-26.59-18.254c-1.797-11.912,7.506-30.102,19.504-34.065c10.895-3.599,21.434-3.48,31.777,1.837
		c4.793,2.464,9.923,4.985,15.115,1.837c3.629-2.2,6.754-5.378,9.683-8.513c1.192-1.276,2.021-3.723,1.731-5.417
		c-1.723-10.077-2.905-20.386-6.019-30.052c-4.173-12.957-15.378-20.357-25.854-27.946c-3.11-2.253-6.484-2.722-10.248-0.433
		c-2.087,1.269-5.03,1.619-7.571,1.572c-13.155-0.245-24.483,4.778-35.472,11.349c-9.728,5.817-16.387,14.549-22.747,23.423
		c-15.883,22.162-26.181,46.046-22.246,74.34c3.346,24.06,9.835,46.753,24.205,66.842c8.157,11.404,18.094,17.711,32.656,17.083
		c22.293-0.962,42.264-8.079,59.808-21.454C321.471,678.308,334.931,666.489,348.495,655.295z"/>
	<path fill="#FFFFFF" d="M602.796,601.068c0.591,7.883,1.626,13.761,1.362,19.581c-1.025,22.568-2.534,45.115-3.701,67.678
		c-0.326,6.297-0.466,12.649-0.016,18.928c0.5,6.975,3.179,8.744,9.834,7.154c6.131-1.465,12.131-3.517,18.295-4.791
		c9.049-1.871,18.153-3.593,27.312-4.776c6.192-0.8,10.08-3.099,10.813-9.292c0.574-4.848,0.259-9.909-0.402-14.775
		c-2.139-15.749-4.772-31.43-6.917-47.178c-1.612-11.829-1.896-23.674-1.699-35.69c0.304-18.531-1.715-37.094-2.535-55.652
		c-0.337-7.628-0.318-15.287-0.052-22.918c0.101-2.9,2.038-5.793,1.898-8.629c-0.169-3.433-0.77-7.511-2.788-10.021
		c-2.603-3.238-6.364-1.724-9.831,0.374c-4.53,2.74-10.002,4.109-14.14,7.279c-15.493,11.871-31.131,23.65-45.666,36.637
		c-8.513,7.607-16.584,8.427-26.207,4.184c-2.129-0.939-4.314-1.855-6.239-3.134c-8.569-5.694-17.089-11.463-25.555-17.307
		c-7.877-5.437-16.968-1.635-18.267,7.745c-1.683,12.146-3.496,24.276-4.992,36.445c-2.918,23.723-5.662,47.468-8.463,71.206
		c-2.177,18.451-4.339,36.903-6.49,55.357c-0.23,1.977-0.515,3.971-0.474,5.951c0.15,7.16,2.149,8.93,9.392,9.83
		c15.448,1.92,30.078-4.002,45.308-4.531c5.775-0.201,14.729-10.71,13.963-15.384c-2.462-15.024,1.796-29.711,1.577-44.595
		c-0.056-3.827,0.643-7.666,1.026-11.839c10.905,6.033,14.421,5.201,20.967-4.615c1.457-2.184,2.599-4.602,3.696-7
		C587.983,618.156,593.289,609.839,602.796,601.068z"/>
	<path fill="#FFFFFF" d="M55.506,174.545c1.108,9.918,2.097,18.76,3.084,27.601c2.135,19.118,4.08,38.259,6.458,57.346
		c2.34,18.778,4.898,37.536,7.883,56.219c0.629,3.934,2.633,8.788,5.634,10.894c3.214,2.256,6.218,4.251,8.865,7.333
		c5.055,5.888,9.932,5.18,15.877-0.425c4.549-4.288,9.587-8.196,14.876-11.53c8.702-5.485,17.96-10.089,26.649-15.593
		c7.461-4.727,8.615-9.853,4.982-17.828c-3.709-8.142-7.004-16.527-11.372-24.304c-16.617-29.588-19.291-62.572-23.509-95.148
		c-0.751-5.798,0.072-12.115,6.905-15.183c11.49-5.159,22.513-11.859,34.481-15.322c13.753-3.979,14.97-10.257,9.457-21.091
		c-0.901-1.771-1.597-3.752-2.878-5.204c-4.885-5.536-8.701-11.012-8.804-19.209c-0.088-6.991-6.455-11.508-11.944-10.411
		c-7.114,1.422-14.231,2.908-21.23,4.801C109.07,90.7,97.484,95.15,85.476,97.451c-21.476,4.116-43.192,6.978-64.784,10.503
		c-2.166,0.354-4.336,1.408-6.227,2.582c-6.321,3.925-8.153,9.903-8.132,17.107c0.024,8.22,2.686,17.102-6.332,24.416
		c7.93,1.42,7.91,6.506,8.485,11.51c0.323,2.816,0.946,5.967,2.518,8.206c6.415,9.138,11.371,10.542,22.318,7.733
		C40.59,177.645,47.97,176.215,55.506,174.545z"/>
	<path fill="#FFFFFF" d="M531.255,350.111c-0.951-0.252-1.902-0.505-2.854-0.758c-0.557-5.227-1.864-10.504-1.513-15.669
		c0.717-10.57-5.617-16.187-16.517-9.34c-3.598,2.26-7.765,3.646-11.742,5.259c-4.302,1.745-8.609,3.553-13.053,4.858
		c-6.434,1.89-9.194,6.395-9.275,12.589c-0.091,6.957-0.098,13.976,0.688,20.873c3.689,32.373,7.665,64.713,11.533,97.066
		c1.338,11.193,2.703,22.382,3.971,33.583c0.419,3.704,2.172,6.222,5.753,7.326c1.88,0.58,4.493,0.381,5.601,1.6
		c6.13,6.747,12.526,3.625,19.177,1.278c10.603-3.741,21.264-7.335,31.994-10.694c8.299-2.598,10.964-6.425,9.121-14.798
		c-3.073-13.963-6.275-27.897-9.495-41.827c-1.165-5.04-2.539-10.033-4.443-17.503c4.179,2.85,6.616,3.901,8.212,5.699
		c11.899,13.397,23.896,26.723,35.305,40.531c5.71,6.91,11.111,7.951,17.231,1.607c1.15-1.192,2.136-2.544,3.187-3.831
		c8.757-10.724,17.091-21.726,29.696-28.653c7.463-4.101,6.958-12.271-0.693-16.33c-9.35-4.96-18.633-10.536-28.625-13.688
		c-17.136-5.405-29.363-17.631-44.306-28.126c3.367-3.861,6.205-7.393,9.331-10.65c10.793-11.247,21.701-22.384,32.528-33.598
		c2.61-2.703,4.742-5.62,3.099-9.753c-1.542-3.876-4.546-5.423-8.494-5.895c-12.804-1.529-25.72-2.519-38.351-4.968
		c-9.695-1.88-16.033,1.941-21.216,9.016c-3.521,4.807-6.372,10.104-9.568,15.152C535.486,343.711,533.352,346.899,531.255,350.111z
		"/>
	<path fill="#FFFFFF" d="M150.258,213.165c1.101,11.17,2.184,23.311,3.517,35.424c2.211,20.108,8.139,38.85,21.111,54.809
		c6.648,8.18,14.607,13.495,25.906,10.99c1.51-0.335,3.219,0.155,4.826,0.341c5.552,0.644,11.156,2.188,16.641,1.836
		c22.077-1.416,39.37-10.431,48.977-31.667c6.913-15.282,11.837-31.169,14.345-47.61c4.156-27.25,7.473-54.632,10.75-82.006
		c0.576-4.81-0.226-9.983-1.363-14.756c-1.848-7.759-7.4-12.578-14.935-14.538c-6.072-1.579-12.344-2.681-18.593-3.226
		c-11.779-1.027-17.954,4.558-19.001,16.47c-0.611,6.951-1.14,13.91-1.807,20.856c-0.916,9.543-3.021,19.04-0.547,28.672
		c0.398,1.548,0.118,3.335-0.12,4.972c-1.772,12.176-3.38,24.384-5.547,36.491c-0.868,4.85-2.394,9.821-4.794,14.074
		c-1.597,2.831-4.997,5.675-8.081,6.386c-4.276,0.987-6.232-3.414-7.351-6.761c-1.674-5.009-3.136-10.245-3.586-15.48
		c-1.819-21.147-7.038-41.955-5.499-63.468c0.669-9.343-4.927-13.763-14.245-13.068c-5.961,0.445-11.88,1.477-17.844,1.876
		c-8.341,0.558-15.506,6.651-16.658,14.808C154.32,183.025,152.398,197.476,150.258,213.165z"/>
	<path fill="#FFFFFF" d="M202.788,395.786c2.024-2.465,3.231-3.991,4.498-5.466c4.512-5.253,9.663-10.082,13.442-15.815
		c8.042-12.203,3.563-25.308-10.525-29.094c-11.779-3.166-24.03-5.471-36.184-6.142c-19.255-1.062-37.344,5.154-54.784,12.717
		c-6.007,2.605-11.898,6.153-16.773,10.477c-3.656,3.243-6.419,6.202-11.833,5.328c-4.175-0.674-6.867,2.11-8.221,5.843
		c-1.723,4.749-2.291,9.319-0.156,14.465c2.78,6.698,5.187,13.774,6.265,20.913c2.728,18.066,4.927,36.226,6.757,54.407
		c1.524,15.141,2.214,30.366,3.29,45.553c0.475,6.706,2.641,8.419,10.611,8.913c2.783,0.172,5.923,0.119,8.229,1.388
		c6.158,3.386,8.824,3.604,14.27-0.44c3.167-2.352,6.077-5.142,9.479-7.069c10.062-5.697,20.511-10.728,30.44-16.64
		c13.966-8.314,27.929-16.717,41.231-26.029c6.105-4.274,11.498-10.212,15.713-16.416c11.411-16.795,5.851-44.42-15.223-52.933
		C210.305,398.531,207.237,397.455,202.788,395.786z"/>
	<path fill="#FFFFFF" d="M412.319,502.504c6.243-0.626,13.202,0.298,18.588-2.186c13.036-6.014,24.616-14.442,31.785-27.562
		c4.764-8.717,9.501-17.448,14.242-26.176c3.822-7.034,1.784-13.029-5.843-15.974c-6.186-2.389-12.586-4.223-18.875-6.348
		c-16.411-5.545-23.082-3.682-33.917,9.682c-1.447,1.785-2.267,4.111-3.822,5.77c-2.242,2.392-4.581,5.374-7.457,6.293
		c-2.687,0.858-6.543,0.063-9.063-1.41c-1.253-0.733-1.512-4.936-0.733-7.012c1.785-4.758,2.824-9.258,2.184-14.475
		c-0.423-3.444,0.882-7.228,1.938-10.701c3.157-10.381,16.37-16.392,26.106-11.571c4.503,2.23,7.426,1.16,10.542-2.074
		c6.556-6.805,5.781-21.599-2.287-27.828c-7.588-5.858-15.851-10.852-23.916-16.072c-1.609-1.042-3.661-1.954-5.516-1.969
		c-12.13-0.098-23.859,1.214-33.619,9.696c-12.46,10.829-20.179,24.333-24.054,40.297c-4.525,18.644-3.008,37.442-1.912,56.243
		c0.07,1.208,0.873,2.44,1.539,3.536c2.718,4.475,5.12,9.219,8.378,13.269c4.548,5.652,8.868,12.291,14.868,15.805
		C383.825,498.972,397.36,503.885,412.319,502.504z"/>
	<path fill="#FFFFFF" d="M663.79,748.571c8.739,1.321,13.1-1.837,13.645-8.455c0.516-6.267-4.183-11.59-8.93-9.473
		c-11.936,5.324-24.744,4.417-37.167,5.47c-16.847,1.427-33.843,0.988-50.744,1.917c-28.453,1.564-56.875,3.666-85.321,5.366
		c-20.24,1.209-40.499,2.108-60.747,3.187c-22.863,1.218-45.713,2.752-68.589,3.616c-12.528,0.473-25.101-0.39-37.648-0.23
		c-18.906,0.241-37.804,1.03-56.71,1.265c-42.822,0.533-85.644,2.19-128.469,0.332c-5.223-0.227-10.708-0.328-15.561-1.983
		c-10.468-3.572-17.471,1.129-17.356,12.531c0.076,7.551,5.26,12.319,12.328,10.029c17.774-5.759,36.066-5.255,54.326-5.678
		c36.839-0.854,73.675-1.807,110.515-2.601c7.921-0.171,15.853,0.143,23.78,0.268c7.273,0.114,14.553,0.534,21.815,0.313
		c4.221-0.128,8.399-1.736,12.618-1.844c17.628-0.449,35.267-0.453,52.895-0.878c10.926-0.263,21.863-0.708,32.754-1.584
		c12.88-1.036,25.687-3.123,38.576-3.863c22.907-1.313,45.864-1.74,68.78-2.935c26.184-1.364,52.331-3.492,78.522-4.645
		C632.635,748.012,648.225,748.571,663.79,748.571z"/>
	<path fill="#FFFFFF" d="M316.929,458.701c-0.682-3-1.451-6.543-2.293-10.069c-7.364-30.852-7.779-62.563-11.559-93.858
		c-1.262-10.445-6.078-15.562-16.058-14.476c-18.903,2.058-34.522,10.876-46.772,25.277c-2.125,2.499-3.178,6.656-3.187,10.051
		c-0.016,6.595,1.372,13.182,1.608,19.792c0.317,8.902-1.199,18.059,0.367,26.69c3.626,19.989,5.867,40.062,6.738,60.308
		c0.206,4.797-0.189,9.252,5.328,11.586c4.121,1.744,7.825,5.174,12.026,5.816c3.532,0.54,7.938-1.139,11.218-3.084
		c11.133-6.602,22.082-13.545,32.808-20.79C312.853,472.095,316.352,466.434,316.929,458.701z"/>
	<path fill="#FFFFFF" d="M54.5,36.144c4.886,5.297,10.161,9.246,16.889,5.667c6.854-3.647,13.93-3.896,21.276-4.025
		c7.298-0.128,14.59-0.645,21.885-0.98c35.195-1.616,70.382-3.447,105.589-4.766c23.888-0.895,47.812-0.804,71.703-1.662
		c15.258-0.547,30.476-2.142,45.725-3.047c17.568-1.042,35.164-1.635,52.724-2.79c30.818-2.027,61.601-4.622,92.432-6.423
		c20.576-1.202,41.206-1.506,61.816-2.07c5.296-0.145,10.654,0.749,15.898,0.259c6.602-0.617,9.703-4.559,8.714-9.687
		c-1.048-5.431-4.896-7.909-11.415-5.96c-15.562,4.653-31.619,3.872-47.478,4.728c-23.865,1.289-47.805,1.209-71.667,2.544
		c-13.919,0.779-27.708,3.7-41.624,4.748c-32.469,2.445-64.962,4.652-97.478,6.346c-20.857,1.087-41.769,1.199-62.659,1.542
		c-18.519,0.304-37.046,0.121-55.562,0.53c-17.269,0.381-34.522,1.505-51.791,1.849c-18.9,0.377-37.807,2.421-56.716-0.709
		C61.971,20.453,58.135,23.67,54.5,36.144z"/>
	<path fill="#FFFFFF" d="M161.107,628.582c-0.421-18.011-5.417-32.25-19.086-42.277c-3.654-2.68-7.886-4.622-11.982-6.639
		c-16.868-8.308-33.802-7.106-49.132,2.746c-15.363,9.874-25.621,24.022-30.554,42.352c-3.983,14.799-4.881,28.967,2.517,42.399
		c7.748,14.067,19.363,23.484,36.503,23.377c12.703-0.08,24.875-3.187,37.055-6.594c9.997-2.796,18.117-7.87,24.177-16.176
		C159.503,655.57,159.26,640.995,161.107,628.582z"/>
	<path d="M503.874,273.167c1.654,6.574,2.931,11.625,4.195,16.679c0.726,2.902,1.775,5.775,2.074,8.722
		c0.592,5.845-1.046,8.48-7.015,10.11c-7.594,2.073-15.398,3.364-23.054,5.231c-5.097,1.243-10.156,2.715-15.118,4.417
		c-7.822,2.683-12.077,1.529-17.39-4.917c-1.156-1.403-2.759-2.479-4.272-3.541c-4.483-3.146-6.119-7.108-5.609-12.787
		c0.672-7.482,0.165-15.069-1.566-23.341c-1.204,1.579-2.718,3.009-3.563,4.762c-5.749,11.926-14.083,21.718-24.722,29.434
		c-14.124,10.245-29.952,15.413-47.524,14.593c-3.98-0.186-8.025-1.367-11.904-0.916c-19.24,2.238-30.071-9.715-38.823-23.717
		c-6.534-10.454-9.522-22.594-10.926-34.981c-2.294-20.237,0.79-39.867,7.315-58.901c4.728-13.791,10.272-27.332,16.068-40.718
		c6.889-15.912,19.921-26.215,34.152-35.158c1.029-0.647,3.045-1.253,3.69-0.737c5.047,4.037,10.958,2.17,16.404,2.384
		c6.721,0.264,12.288,2.264,16.983,6.987c4.208,4.232,9.252,7.893,12.466,12.769c2.543,3.858,4.019,9.201,3.922,13.842
		c-0.157,7.5-3.822,10.199-11.537,10.772c-2.323,0.172-4.699-0.004-6.975,0.404c-10.439,1.871-18.849,5.966-25.374,15.512
		c-12.612,18.452-15.862,38.333-12.797,59.724c1.607,11.216,10.727,14.158,19.471,6.722c2.785-2.368,5.617-4.684,8.343-7.118
		c14.922-13.323,31.357-12.377,48.461-5.192c1.524,0.64,2.994,1.408,4.512,2.064c0.256,0.111,0.628-0.048,2.373-0.234
		c0-7.887,0.159-15.979-0.029-24.062c-0.634-27.257-1.374-54.512-2.111-81.767c-0.234-8.636-0.669-17.268-0.842-25.905
		c-0.06-2.974,0.098-6.02,0.683-8.927c1.226-6.086,4.956-9.253,11.193-8.791c7.959,0.589,13.924-2.543,19.48-7.87
		c3.486-3.342,7.473-6.858,11.894-8.366c6.781-2.314,9.661,0.83,10.185,7.842c1.078,14.426,2.617,28.818,4.141,45.086
		c6.039-4.013,10.408-6.769,14.622-9.745c12.434-8.784,24.924-17.499,37.115-26.611c2.799-2.092,4.484-5.672,6.687-8.563
		c4.448-5.836,13.64-9.765,17.011-5.997c8.76,9.793,17.306,20.037,24.119,31.21c3.794,6.223-1.662,16.074-8.962,20.169
		c-23.069,12.943-41.629,31.744-62.354,47.728c-0.484,0.373-0.689,1.106-1.646,2.716c3.537,3.4,7.273,7.005,11.025,10.594
		c5.04,4.819,9.885,9.869,15.181,14.39c13.096,11.179,26.372,22.149,39.646,33.118c2.815,2.327,6.04,4.154,8.88,6.454
		c5.818,4.713,6.405,9.327,2.186,15.531c-0.559,0.822-1.127,1.706-1.89,2.311c-9.86,7.824-14.631,18.538-18.099,30.287
		c-2.72,9.219-4.629,10.002-13.886,10.169c-2.222,0.04-4.541,0.81-6.615,1.707c-5.515,2.384-9.88,1.628-14.41-2.772
		C528.433,295.378,517.044,285.282,503.874,273.167z M463.577,305.054c7.523-1.339,14.373-2.534,21.213-3.781
		c7.83-1.427,9.279-3.488,8.34-11.502c-1.081-9.229-2.264-18.451-3.121-27.702c-1.252-13.511-2.443-27.034-3.274-40.575
		c-0.355-5.783,2.569-9.388,7.125-10.392c5.181-1.142,9.034,1.176,11.449,7.232c1.344,3.37,1.754,7.199,3.5,10.308
		c11.954,21.285,26.009,40.939,45.378,56.255c2.232,1.765,4.754,3.163,8.067,5.339c6.301-11.205,12.067-21.46,18.364-32.658
		c-2.857-2.525-5.581-4.918-8.289-7.327c-16.12-14.343-32.235-28.691-48.359-43.03c-0.745-0.663-1.576-1.23-2.324-1.891
		c-7.688-6.793-15.485-13.469-23.01-20.437c-5.87-5.435-4.987-11.868,2.015-16.292c2.805-1.773,5.859-3.148,8.748-4.795
		c7.211-4.11,14.717-7.805,21.507-12.526c9.494-6.601,18.695-13.685,27.538-21.137c5.697-4.801,12.588-8.77,15.567-17.081
		c-3.907-5.343-7.901-10.805-12.093-16.537c-7.09,5.773-13.06,11.048-19.452,15.751c-12.822,9.434-26.066,18.303-38.736,27.931
		c-4.949,3.761-8.611,9.167-13.24,13.407c-5.373,4.921-13.137,2.967-15.223-3.64c-0.514-1.629-0.077-3.559-0.077-4.84
		c-3.993,0.369-7.219,0.854-10.455,0.92c-4.107,0.084-6.605,2.016-6.137,6.039c0.576,4.954,1.973,9.812,3.031,14.784
		c-1.05,4.049-2.228,8.586-3.427,13.21c4.758,2.448,10.133,2.566,9.726,8.909c-2.343,2.22-7.101,4.666-7.067,7.043
		c0.174,12.098-4.792,25.164,5.371,35.575c-4.93,7.017-4.93,7.017-3.655,13.662c2.208-0.525,4.437-1.578,6.568-1.407
		c1.948,0.156,4.927,1.266,5.375,2.634c0.497,1.52-0.929,4.233-2.316,5.638c-1.26,1.275-3.795,1.184-5.403,2.248
		c-2.223,1.47-4.103,3.458-6.748,5.763c4.711,1.95,7.895,3.268,10.917,4.519c0.029,7.688-14.31,5.332-9.143,15.511
		c2.186,0.148,4.522,0.306,6.857,0.464c0.659,0.421,1.318,0.843,1.977,1.264C461.883,287.935,457.505,294.964,463.577,305.054z
		 M336.625,292.59c7.655,11.655,7.594,11.48,17.854,7.898c4.467-1.56,8.729-4.597,14.072-3.602c1.28,7.019-6.405,6.935-9.056,12.263
		c4.141,0,7.429,0.627,10.378-0.109c12.695-3.17,24.363-8.628,34.476-17.069c8.931-7.453,14.702-16.868,17.562-28.186
		c1.019-4.034,0.054-6.355-3.915-7.626c-9.953-3.187-19.122-1.165-27.35,4.688c-5.116,3.639-9.592,8.175-14.364,12.299
		c-7.692,6.647-23.51,5.807-29.231-2.45c-4.383-6.326-7.185-13.747-10.798-20.895c-3.411,1.283-7.335,2.759-11.036,4.151
		c-0.355,12.269,1.333,19.5,6.771,29.299c4.095-0.752,8.283-1.932,12.511-2.104c1.786-0.072,3.657,1.98,5.49,3.067
		c-1.18,1.729-1.99,4.102-3.624,5.039C343.746,290.755,340.582,291.306,336.625,292.59z M393.777,157.782
		c-6.663-10.514-18.288-14.871-26.207-9.725c-9.216,5.989-16.821,13.721-22.325,23.164c6.023,7.853,5.511,8.537-8.528,11.842
		c-1.682,5.906-6.106,11.222-5.413,18.209c12.479-0.989,12.479-0.988,17.525-10.856c0.303-0.592,0.567-1.203,0.863-1.798
		c7.463-15.022,18.336-25.703,35.678-28.361C388.162,159.829,390.843,158.666,393.777,157.782z M474.247,101.75
		c-11.997,3.461-14.583,6.576-15.049,16.16c-0.159,3.275-1.005,6.512-1.295,9.788c-0.216,2.442-0.043,4.919-0.043,7.138
		c7.035,0,13.035,0,19.821,0C476.493,123.398,475.411,112.972,474.247,101.75z M336.972,241.733
		c1.207-9.718,2.358-18.979,3.503-28.199c-13.669-1.866-15.161-0.687-16.349,11.36c-0.261,2.646-1.083,5.256-1.153,7.895
		c-0.083,3.137,0.367,6.287,0.63,10.061C328.682,242.426,332.521,242.105,336.972,241.733z"/>
	<path d="M348.495,655.295c-13.564,11.193-27.024,23.012-41.234,33.846c-17.544,13.375-37.514,20.492-59.808,21.454
		c-14.562,0.628-24.499-5.679-32.656-17.083c-14.369-20.089-20.858-42.782-24.205-66.842c-3.935-28.294,6.363-52.178,22.246-74.34
		c6.36-8.875,13.019-17.606,22.747-23.423c10.989-6.571,22.317-11.594,35.472-11.349c2.542,0.047,5.484-0.302,7.571-1.572
		c3.764-2.289,7.137-1.82,10.248,0.433c10.477,7.589,21.681,14.989,25.854,27.946c3.114,9.667,4.296,19.975,6.019,30.052
		c0.29,1.695-0.539,4.141-1.731,5.417c-2.929,3.135-6.055,6.313-9.683,8.513c-5.192,3.148-10.322,0.627-15.115-1.837
		c-10.343-5.317-20.882-5.436-31.777-1.837c-11.998,3.963-21.301,22.153-19.504,34.065c1.653,10.956,15.914,21.114,26.59,18.254
		c11.225-3.007,22.377-6.409,33.309-10.339c5.489-1.974,10.659-4.714,14.576-9.889c5.022-6.635,10.79-5.372,14.365,2.313
		c2.934,6.308,5.691,12.701,8.731,18.957c0.822,1.691,2.385,3.021,4.859,4.113c-1.151-7.183-2.306-14.365-3.453-21.549
		c-3.565-22.34,1.943-42.567,13.497-61.724c5.875-9.741,12.409-18.758,20.739-26.467c12.688-11.743,26.989-16.755,43.976-10.434
		c1.244,0.463,2.492,1.067,3.784,1.222c22.828,2.736,39.971,14.511,50.787,34.328c11.269,20.648,18.627,42.729,15.696,66.833
		c-1.571,12.918-4.755,25.512-11.575,36.839c-6.103,10.134-14.927,16.672-26.275,20.211c-11.036,3.441-21.823,7.679-32.827,11.231
		c-19.414,6.266-47.139-2.422-59.133-18.596C356.491,668.519,353.094,662.479,348.495,655.295z M232.6,691.872l-0.222-0.206
		c5.66,1.681,11.317,4.756,16.982,4.769c14.468,0.034,29.009-2.791,40.824-11.145c13.215-9.344,24.903-20.863,37.137-31.572
		c4.865-4.258,1.347-8.549-0.65-12.579c-1.96-3.955-4.854-6.154-9.692-4.383c-7.781,2.847-15.649,5.462-23.491,8.141
		c-11.326,3.869-22.55,8.157-34.691,8.82c-9.182,0.501-17.171-1.862-22.424-10.001c-7.513-11.642-13.627-23.67-9.81-38.293
		c0.574-2.2,0.268-4.642,0.284-6.973c0.05-7.325,2.869-13.398,7.455-19.091c5.108-6.34,12.179-9.079,19.263-11.807
		c13.699-5.274,28.027-4.614,42.329-3.863c2.469,0.13,4.95,0.018,9.184,0.018c-2.002-6.436-2.706-11.922-5.317-16.259
		c-3.124-5.19-6.383-11.307-13.545-12.13c-7.17-0.823-14.396-1.185-21.606-1.621c-12.569-0.76-20.555,7.14-28.889,14.411
		c0.762,1.374,0.992,2,1.395,2.483c5.741,6.892,4.936,10.006-3.022,12.576c-4.078,1.317-8.332,2.56-11.922,4.78
		c-3.591,2.221-7.069,5.303-4.692,10.622c2.463,5.51-0.45,8.625-4.917,11.347c-5.759,3.51-9.563,14.065-6.02,19.638
		c3.812,5.995,3.485,9.605-1.731,14.511c-2.008,1.888-1.72,7.559-0.688,10.963c1.054,3.478,4.881,2.275,7.834,1.352
		c1.252-0.391,2.627-0.389,3.946-0.57c3.646-0.501,6.263,1.303,6.262,4.671c0,2.018-1.904,4.655-3.716,5.916
		c-3.125,2.175-6.846,3.494-11.019,5.512c1.939,4.684,3.476,8.398,4.552,10.996c6.819-1.899,12.046-3.931,17.439-4.583
		c2.256-0.273,5.962,1.792,7.071,3.842c1.877,3.472-1.613,5.08-4.353,6.445c-4.361,2.172-8.704,4.38-13.255,6.674
		C221.991,682.95,226.68,687.919,232.6,691.872z M360.233,634.467c1.787,5.781,3.708,11.713,5.454,17.697
		c5.691,19.512,25.752,27.768,40.592,27.819c18.039,0.062,33.83-6.763,49.125-14.814c7.949-4.184,13.465-11.404,17.33-19.962
		c9.86-21.831,5.12-43.018-2.401-63.945c-5.033-14.005-13.705-25.711-25.826-34.703c-7.885-5.85-15.708-11.155-26.355-7.333
		c-1.96,0.703-4.566,0.028-6.775-0.458c-9.028-1.988-16.434-0.492-23.323,6.707c-10.44,10.91-21.324,21.207-27.515,35.434
		c-1.935,4.448-3.032,8.495-1.599,13.157c2.61-0.631,5.204-2.158,6.949-1.484c3.207,1.239,6.506,3.312,8.572,5.968
		c0.982,1.263-0.006,5.927-1.468,6.826c-2.832,1.741-6.645,2.547-10.027,2.482c-1.952-0.037-3.857-2.533-6.501-4.441
		c0.649,5.382,1.189,9.864,1.722,14.29c5.439,0.054,10.689-1.5,11.943,5.251C371.088,628.124,369.467,630.182,360.233,634.467z"/>
	<path d="M602.796,601.068c-9.507,8.771-14.814,17.087-18.99,26.221c-1.096,2.398-2.239,4.815-3.696,7
		c-6.546,9.816-10.062,10.648-20.967,4.615c-0.383,4.173-1.082,8.012-1.026,11.839c0.219,14.884-4.039,29.571-1.577,44.595
		c0.766,4.674-8.188,15.184-13.963,15.384c-15.229,0.53-29.86,6.451-45.308,4.531c-7.243-0.9-9.241-2.67-9.392-9.83
		c-0.041-1.98,0.243-3.974,0.474-5.951c2.15-18.454,4.312-36.906,6.49-55.357c2.801-23.738,5.545-47.482,8.463-71.206
		c1.497-12.169,3.309-24.299,4.992-36.445c1.3-9.38,10.39-13.182,18.267-7.745c8.467,5.844,16.987,11.613,25.555,17.307
		c1.925,1.279,4.11,2.195,6.239,3.134c9.623,4.244,17.694,3.424,26.207-4.184c14.534-12.987,30.172-24.767,45.666-36.637
		c4.138-3.171,9.61-4.539,14.14-7.279c3.467-2.097,7.228-3.612,9.831-0.374c2.018,2.51,2.618,6.588,2.788,10.021
		c0.14,2.835-1.797,5.729-1.898,8.629c-0.266,7.631-0.285,15.29,0.052,22.918c0.82,18.559,2.839,37.121,2.535,55.652
		c-0.197,12.016,0.087,23.861,1.699,35.69c2.146,15.748,4.778,31.429,6.917,47.178c0.661,4.866,0.977,9.927,0.402,14.775
		c-0.734,6.193-4.622,8.491-10.813,9.292c-9.159,1.184-18.263,2.906-27.312,4.776c-6.165,1.275-12.165,3.327-18.295,4.791
		c-6.654,1.59-9.334-0.179-9.834-7.154c-0.45-6.279-0.309-12.631,0.016-18.928c1.167-22.563,2.676-45.109,3.701-67.678
		C604.423,614.83,603.387,608.951,602.796,601.068z M571.14,615.922c1.692-1.045,2.692-1.384,3.286-2.072
		c9.305-10.772,18.51-21.631,27.871-32.353c1.478-1.693,3.447-3.141,5.465-4.147c7.354-3.668,10.897-1.934,11.024,6.15
		c0.189,11.953-0.339,23.924-0.762,35.88c-0.792,22.416-3.409,44.782-1.913,67.255c0.232,3.479,1.153,6.912,2.021,11.883
		c10.034-3.222,18.851-5.788,27.419-9.017c1.833-0.691,3.464-3.643,3.917-5.819c0.516-2.477-0.414-5.248-0.679-7.895
		c-2.118-21.123-4.706-42.213-6.156-63.382c-0.835-12.19,0.369-24.507,0.292-36.765c-0.067-10.576-0.392-21.165-1.088-31.716
		c-0.488-7.401-1.791-14.749-2.951-23.854c-6.995,4.68-13.049,8.083-18.353,12.408c-12.062,9.838-24.119,19.739-35.475,30.365
		c-8.081,7.561-16.739,7.267-25.74,3.887c-7.409-2.782-14.322-6.878-21.484-10.329c-4.034-1.944-8.129-3.763-12.688-5.864
		c-0.442,2.372-0.743,3.643-0.91,4.931c-1.406,10.857-1.022,22.346-4.613,32.42c-4.69,13.157-5.279,26.683-7.212,40.036
		c-2.802,19.356-4.031,38.945-5.772,58.448c-0.369,4.133-0.054,8.327-0.054,13.588c6.683-0.534,11.987-0.493,17.094-1.477
		c7.278-1.404,7.946-2.534,8.631-9.863c2.01-21.502,4.015-43.005,5.966-64.513c0.208-2.297,0.884-5.09-0.093-6.86
		c-3.743-6.778,0.22-12.988,1.011-19.324c0.612-4.902,9.558-11.808,13.854-11.586c5.655,0.292,5.308,6.168,8.024,9.224
		c0.817,0.918,0.814,2.516,1.411,3.688C565.285,604.75,568.167,610.213,571.14,615.922z"/>
	<path d="M55.506,174.545c-7.535,1.67-14.916,3.099-22.185,4.964c-10.947,2.808-15.903,1.405-22.318-7.733
		c-1.572-2.239-2.195-5.39-2.518-8.206C7.91,158.566,7.93,153.48,0,152.06c9.018-7.315,6.356-16.196,6.332-24.416
		c-0.021-7.205,1.811-13.182,8.132-17.107c1.891-1.175,4.062-2.229,6.227-2.582c21.593-3.526,43.308-6.387,64.784-10.503
		c12.008-2.301,23.594-6.751,35.444-9.957c6.998-1.893,14.116-3.38,21.23-4.801c5.489-1.097,11.856,3.42,11.944,10.411
		c0.103,8.196,3.919,13.673,8.804,19.209c1.281,1.452,1.977,3.433,2.878,5.204c5.514,10.834,4.297,17.112-9.457,21.091
		c-11.968,3.463-22.991,10.163-34.481,15.322c-6.833,3.068-7.656,9.385-6.905,15.183c4.218,32.575,6.893,65.559,23.509,95.148
		c4.368,7.778,7.662,16.163,11.372,24.304c3.633,7.975,2.479,13.101-4.982,17.828c-8.688,5.504-17.947,10.108-26.649,15.593
		c-5.289,3.334-10.327,7.241-14.876,11.53c-5.945,5.604-10.822,6.312-15.877,0.425c-2.647-3.082-5.65-5.077-8.865-7.333
		c-3.001-2.106-5.005-6.96-5.634-10.894c-2.985-18.683-5.543-37.441-7.883-56.219c-2.378-19.087-4.323-38.229-6.458-57.346
		C57.603,193.305,56.614,184.463,55.506,174.545z M78.834,142.612c1.786,4.714,3.223,7.278,3.687,10.007
		c0.779,4.573,1.068,9.245,1.332,13.888c0.69,12.171,1.255,24.349,1.834,35.827c3.763,2.718,10.072-1.08,10.222,5.275
		c0.107,4.535-4.664,3.671-7.639,4.606c-0.558,0.175-0.982,0.777-2.159,1.759c0.263,2.744-0.306,6.473,1.127,9.116
		c1.521,2.803,4.943,4.574,8.467,7.593c-3.444,4.46-7.543,8.847-5.936,15.482c1.454,6.003,1.763,12.284,2.467,17.611
		c3.842,2.226,8.796-1.401,10.016,4.874c-3.092,1.722-6.131,3.415-9.458,5.268c0.368,4.578,0.707,8.792,1.092,13.572
		c3.42-0.341,6.124-0.611,8.625-0.861c2.063,4.077-0.204,5.373-2.705,6.711c-1.971,1.055-5.328,2.249-5.44,3.6
		c-0.633,7.636-1.333,15.482,2.758,23.611c5.269-3.311,9.391-6.026,13.635-8.534c4.29-2.534,8.765-4.755,13.046-7.302
		c15.239-9.064,15.658-9.314,7.741-25.084c-10.977-21.865-18.295-44.833-23.553-68.644c-3.357-15.203-3.361-31.103-9.671-45.727
		c-0.894-2.072,0.161-5.131,0.725-7.641c0.504-2.241,2.275-4.355,2.272-6.524c-0.008-7.532,4.315-11.464,10.567-14.147
		c3.635-1.56,7.277-3.11,10.857-4.789c7.998-3.752,15.96-7.583,24.458-11.63c-1.798-3.634-3.296-6.177-4.354-8.893
		c-3.043-7.812-9.151-10.144-16.75-9.15c-3.877,0.507-7.629,2.034-11.413,3.18c-5.683,1.722-11.283,3.757-17.028,5.226
		c-11.52,2.945-23.346,4.894-34.605,8.597c-8.859,2.913-17.546,5.486-26.882,6.383c-3.765,0.362-9.838,0.26-9.007,7.554
		c0.088,0.769-2.898,2.223-4.643,2.786c-2.394,0.772-4.965,0.996-7.344,1.434c-0.944,5.171,0.011,8,5.394,7.238
		c4.05-0.573,8.281-1.868,12.593,3.151c-6.233,1.595-11.459,2.933-17.192,4.401c0.452,3.544,0.812,6.371,1.227,9.626
		C37.98,156.71,59.128,155.363,78.834,142.612z"/>
	<path d="M531.255,350.111c2.097-3.212,4.23-6.4,6.282-9.641c3.196-5.049,6.047-10.345,9.568-15.152
		c5.183-7.076,11.521-10.896,21.216-9.016c12.631,2.449,25.547,3.438,38.351,4.968c3.948,0.472,6.952,2.019,8.494,5.895
		c1.644,4.133-0.489,7.05-3.099,9.753c-10.827,11.215-21.736,22.351-32.528,33.598c-3.125,3.257-5.964,6.789-9.331,10.65
		c14.943,10.495,27.169,22.721,44.306,28.126c9.992,3.152,19.275,8.728,28.625,13.688c7.651,4.059,8.156,12.229,0.693,16.33
		c-12.605,6.927-20.939,17.929-29.696,28.653c-1.051,1.287-2.037,2.638-3.187,3.831c-6.12,6.343-11.521,5.303-17.231-1.607
		c-11.41-13.808-23.406-27.135-35.305-40.531c-1.596-1.797-4.033-2.848-8.212-5.699c1.904,7.47,3.278,12.462,4.443,17.503
		c3.221,13.93,6.423,27.864,9.495,41.827c1.843,8.373-0.822,12.2-9.121,14.798c-10.73,3.359-21.391,6.953-31.994,10.694
		c-6.65,2.346-13.047,5.469-19.177-1.278c-1.108-1.22-3.721-1.021-5.601-1.6c-3.581-1.104-5.333-3.622-5.753-7.326
		c-1.269-11.201-2.633-22.39-3.971-33.583c-3.868-32.353-7.844-64.693-11.533-97.066c-0.786-6.897-0.779-13.916-0.688-20.873
		c0.081-6.194,2.841-10.699,9.275-12.589c4.444-1.305,8.751-3.113,13.053-4.858c3.977-1.613,8.145-3,11.742-5.259
		c10.9-6.847,17.234-1.23,16.517,9.34c-0.351,5.165,0.956,10.442,1.513,15.669C529.353,349.606,530.304,349.859,531.255,350.111z
		 M594.206,335.458c-9.242-5.798-18.451-6.563-27.754-5.179c-3.686,0.548-7.927,2.329-10.427,4.962
		c-8.31,8.749-14.468,19.13-18.273,30.562c-3.818,11.468-4.591,12.376-16.186,10.357c-0.963-0.168-2.102-0.402-2.934-0.06
		c-3.863,1.589-8.902,2.399-11.156,5.316c-3.188,4.125,2.562,6.473,4.517,9.572c0.166,0.263,0.169,0.628,0.258,0.946
		c-6.443,10.047-3.273,20.432-2.426,31.321c2.958-0.727,4.52-1.184,6.11-1.485c2.95-0.559,5.967,0.176,6.114,3.312
		c0.1,2.122-1.69,4.783-3.399,6.391c-1.252,1.178-3.95,0.656-5.639,1.567c-2.941,1.587-3.332,3.88-0.263,6.572
		c2.352-0.507,4.918-1.475,7.479-1.459c1.551,0.009,3.092,1.542,4.637,2.39c-0.782,1.34-1.324,2.944-2.42,3.936
		c-0.897,0.813-2.482,0.828-3.715,1.316c-7.329,2.902-8.829,6.073-4.74,12.746c1.998,3.261,1.602,5.658,1.174,9.097
		c-1.102,8.841-0.747,17.784,3.254,27.443c4.642-1.571,8.912-2.99,13.163-4.465c2.769-0.961,5.459-2.181,8.272-2.978
		c7.689-2.179,9.96-4.849,8.833-12.891c-2.722-19.414-5.61-38.818-13.196-57.137c-0.996-2.406-1.222-5.123-1.881-7.677
		c-1.281-4.969,0.729-8.544,5.001-10.735c4.147-2.126,7.739-0.465,10.75,2.65c10.377,10.739,20.806,21.43,31.065,32.281
		c7.461,7.89,14.685,16.004,22.722,24.792c9.318-9.061,17.865-17.037,25.199-27.178c-7.114-7.175-15.98-9.273-23.914-13.02
		c-5.041-2.381-10.627-4.112-14.92-7.473c-10.221-8.002-20.175-15.972-33.243-19.188c-6.491-1.597-7.674-5.623-6.524-12.374
		c0.98-5.755,5.227-8.28,9.345-10.963C572.543,359.962,584.669,349.855,594.206,335.458z M503.6,343.779
		c0.896,8.776,1.747,17.11,2.602,25.489c12.007-1.72,12.663-2.619,10.492-12.474c-1.107-5.027-2.166-10.064-3.352-15.589
		C509.762,342.151,506.982,342.885,503.6,343.779z"/>
	<path d="M150.258,213.165c2.141-15.689,4.062-30.14,6.102-44.574c1.152-8.157,8.317-14.249,16.658-14.808
		c5.963-0.399,11.882-1.431,17.844-1.876c9.318-0.696,14.913,3.725,14.245,13.068c-1.54,21.513,3.68,42.321,5.499,63.468
		c0.45,5.234,1.912,10.471,3.586,15.48c1.119,3.347,3.075,7.748,7.351,6.761c3.084-0.711,6.484-3.555,8.081-6.386
		c2.4-4.254,3.926-9.224,4.794-14.074c2.167-12.107,3.775-24.315,5.547-36.491c0.238-1.637,0.518-3.424,0.12-4.972
		c-2.474-9.632-0.369-19.129,0.547-28.672c0.667-6.946,1.196-13.905,1.807-20.856c1.047-11.911,7.222-17.497,19.001-16.47
		c6.25,0.545,12.521,1.647,18.593,3.226c7.535,1.96,13.087,6.779,14.935,14.538c1.137,4.774,1.938,9.946,1.363,14.756
		c-3.276,27.374-6.594,54.756-10.75,82.006c-2.507,16.44-7.431,32.328-14.345,47.61c-9.607,21.236-26.9,30.252-48.977,31.667
		c-5.485,0.351-11.089-1.192-16.641-1.836c-1.607-0.186-3.316-0.676-4.826-0.341c-11.299,2.505-19.258-2.81-25.906-10.99
		c-12.972-15.959-18.9-34.701-21.111-54.809C152.442,236.476,151.359,224.335,150.258,213.165z M193.308,280.504
		c1.34,3.246,2.03,5.839,3.378,8.026c6.576,10.67,15.405,17.031,28.741,14.623c10.022-1.809,19.069-5.739,26.936-12.17
		c1.995-1.631,3.75-3.799,4.999-6.061c8.089-14.65,13.815-30.196,16.1-46.804c3.17-23.046,6.087-46.13,8.786-69.236
		c0.688-5.892,0.62-11.973,0.06-17.887c-0.812-8.578-5.91-12.775-14.6-13.041c-8.993-0.276-10.627,1.165-12.787,11.404
		c-0.342,1.62-0.588,3.269-0.74,4.917c-1.066,11.555-1.983,23.126-3.167,34.669c-1.388,13.527-3.127,27.019-4.473,40.55
		c-1.14,11.463-5.649,21.747-10.855,31.736c-2.285,4.383-9.68,7.172-13.715,5.551c-7.224-2.903-14.288-6.699-16.812-14.577
		c-2.813-8.777-4.879-17.856-6.48-26.943c-1.915-10.87-2.993-21.888-4.453-32.985c-4.42,1.738-7.53,2.847-10.545,4.17
		c-8.06,3.536-9.083,6.38-5.481,14.839c0.515,1.209,1.117,2.381,1.288,2.743c-1.003,4.317-3.189,8.182-2.363,11.23
		c2.327,8.583,2.66,17.431,4.598,26.017c0.353,1.562,1.286,2.993,1.216,2.835c4.464,4.675,10.898-3.415,13.375,4.512
		c-10.398,5.986-10.398,5.986-7.125,11.389c3.023-0.964,6.177-1.891,9.274-2.979c3.563-1.252,7.833-2.781,9.652,1.49
		c2.225,5.225-3.171,6.39-6.389,8.254C199.243,278.216,196.458,279.136,193.308,280.504z M192.313,185.024
		c0-3.905,0.483-7.889-0.189-11.668c-0.377-2.117-2.294-5.003-4.16-5.63c-7.729-2.6-13.726,2.205-13.423,10.313
		c0.109,2.906,0.644,5.796,0.98,8.661C181.069,186.145,186.175,185.636,192.313,185.024z"/>
	<path d="M202.788,395.786c4.448,1.669,7.517,2.745,10.529,3.961c21.074,8.512,26.634,36.138,15.223,52.933
		c-4.215,6.203-9.608,12.142-15.713,16.416c-13.302,9.312-27.265,17.714-41.231,26.029c-9.929,5.911-20.378,10.942-30.44,16.64
		c-3.403,1.927-6.312,4.717-9.479,7.069c-5.446,4.044-8.112,3.826-14.27,0.44c-2.307-1.268-5.447-1.215-8.229-1.388
		c-7.97-0.494-10.136-2.207-10.611-8.913c-1.076-15.187-1.766-30.412-3.29-45.553c-1.83-18.181-4.029-36.342-6.757-54.407
		c-1.078-7.139-3.485-14.215-6.265-20.913c-2.135-5.145-1.567-9.716,0.156-14.465c1.354-3.733,4.046-6.517,8.221-5.843
		c5.414,0.874,8.176-2.085,11.833-5.328c4.875-4.324,10.766-7.872,16.773-10.477c17.44-7.563,35.529-13.779,54.784-12.717
		c12.153,0.67,24.404,2.976,36.184,6.142c14.088,3.786,18.567,16.891,10.525,29.094c-3.779,5.734-8.93,10.562-13.442,15.815
		C206.019,391.795,204.812,393.322,202.788,395.786z M114.851,425.6c0.381,0.793,0.761,1.587,1.142,2.38
		c4.159-0.789,8.298-2.056,12.482-2.228c3.897-0.16,7.747-4.281,12.429-0.454c-4.64,9.596-17.118,7.895-22.319,17.308
		c0.301,2.505,0.718,5.978,1.289,10.73c4.173-1.898,7.05-3.299,9.999-4.527c5.505-2.292,10.974-4.726,16.633-6.563
		c1.623-0.527,3.845,0.791,6.735,1.491c-4.218,7.336-11.11,7.967-16.323,11.062c-3.404,2.021-7.229,3.391-10.431,5.664
		c-1.595,1.132-2.217,3.638-3.278,5.522c1.913,0.773,3.771,1.778,5.756,2.249c1.779,0.422,3.697,0.255,5.194,0.33
		c2.109,4.29-0.426,5.747-2.958,6.56c-4.946,1.587-5.693,5.392-5.165,9.525c0.652,5.108,0.511,10.606,4.539,15.027
		c1.505-0.454,2.834-0.645,3.962-1.226c21.477-11.064,43.304-21.529,64.189-33.62c7.429-4.301,13.368-11.993,18.528-19.184
		c5.929-8.262,4.695-17.722,0.087-26.533c-4.165-7.963-11.997-8.607-19.685-9.238c-1.975-0.162-4.213,0.745-5.937,0.104
		c-3.545-1.317-7.935-2.536-9.946-5.282c-2.813-3.841,0.913-7.396,3.601-10.331c1.324-1.445,3.215-2.358,4.608-3.753
		c5.844-5.855,12.098-11.399,17.259-17.815c6.596-8.199,4.31-13.833-5.64-16.96c-14.595-4.586-29.196-4.533-44.256-2.162
		c-13.458,2.119-25.493,7.207-36.836,14.136c-3.452,2.109-6.36,5.92-8.211,9.608c-1.856,3.697-2.082,8.213-3.076,12.61
		c3.14-0.231,6.463-0.93,9.648-0.53c1.768,0.222,3.306,2.28,4.948,3.51c-1.154,1.381-2.041,3.357-3.518,4.022
		c-3.215,1.448-6.732,2.227-11.031,3.561c1.299,5.362,2.404,9.927,3.571,14.748c7.13-2.462,13.028-4.689,19.054-6.487
		c2.478-0.739,5.272-0.912,7.841-0.624c1.116,0.126,2.465,1.932,2.865,3.234c0.232,0.755-1.006,2.642-1.935,2.948
		c-2.815,0.927-5.811,1.295-8.721,1.945C125.287,417.846,118.948,419.877,114.851,425.6z"/>
	<path d="M412.319,502.504c-14.959,1.38-28.493-3.532-40.848-10.768c-6-3.514-10.32-10.152-14.868-15.805
		c-3.258-4.05-5.66-8.794-8.378-13.269c-0.666-1.097-1.469-2.328-1.539-3.536c-1.095-18.801-2.613-37.599,1.912-56.243
		c3.875-15.965,11.594-29.468,24.054-40.297c9.76-8.482,21.49-9.794,33.619-9.696c1.855,0.015,3.907,0.927,5.516,1.969
		c8.065,5.221,16.329,10.214,23.916,16.072c8.069,6.229,8.844,21.023,2.287,27.828c-3.116,3.234-6.038,4.304-10.542,2.074
		c-9.735-4.821-22.948,1.191-26.106,11.571c-1.056,3.473-2.36,7.257-1.938,10.701c0.64,5.217-0.399,9.717-2.184,14.475
		c-0.779,2.075-0.52,6.279,0.733,7.012c2.519,1.474,6.376,2.269,9.063,1.41c2.876-0.919,5.215-3.901,7.457-6.293
		c1.555-1.659,2.375-3.985,3.822-5.77c10.835-13.365,17.506-15.228,33.917-9.682c6.29,2.125,12.689,3.959,18.875,6.348
		c7.628,2.946,9.665,8.94,5.843,15.974c-4.742,8.728-9.479,17.459-14.242,26.176c-7.169,13.12-18.749,21.548-31.785,27.562
		C425.521,502.803,418.562,501.878,412.319,502.504z M385.064,482.929c10.971,6.612,22.674,8.067,33.364,5.848
		c21.608-4.486,36.701-17.694,43.034-39.685c1.269-4.405,0.182-7.254-4.09-8.548c-5.711-1.729-11.496-3.23-17.288-4.673
		c-4.048-1.009-6.469,0.821-9.087,4.146c-4.867,6.181-10.097,12.353-16.231,17.191c-7.962,6.28-18.029,5.172-25.478-1.582
		c-3.932-3.565-7.901-7.217-11.155-11.377c-9.78-12.5-13.137-26.392-5.15-40.844c6.883-12.456,16.83-21.763,31.897-23.896
		c4.097-0.58,8.084-1.941,12.743-3.098c-1.256-1.542-1.691-2.52-2.437-2.921c-5.774-3.104-13.251-1.771-18.295-7.051
		c-0.548-0.574-2.636-0.141-3.761,0.372c-9.45,4.304-18.225,9.331-23.506,18.996c-7.327,13.41-11.052,27.887-11.888,42.881
		c-0.344,6.161-0.844,13.22,2.939,18.681c4.952,1.59,11.478-4.692,13.707,3.528c-0.53,6.143-10.312,4.987-9.271,13.399
		c4.051-1.717,7.203-3.323,10.527-4.389c3.597-1.154,7.355-1.805,11.905-2.879c-0.285,11.048-10.53,11.447-15.866,16.873
		c4.366,3.227,7.465,0.986,10.764-0.187c1.333-0.474,4.073-0.362,4.368,0.295c0.678,1.509,0.397,3.532,0.207,5.315
		C386.922,480.189,386.155,480.982,385.064,482.929z"/>
	<path d="M663.79,748.571c-15.565,0-31.155-0.559-46.69,0.125c-26.191,1.153-52.338,3.281-78.522,4.645
		c-22.916,1.194-45.872,1.621-68.78,2.935c-12.89,0.739-25.697,2.826-38.576,3.863c-10.891,0.876-21.828,1.321-32.754,1.584
		c-17.628,0.425-35.267,0.429-52.895,0.878c-4.219,0.107-8.397,1.716-12.618,1.844c-7.262,0.221-14.542-0.199-21.815-0.313
		c-7.927-0.125-15.859-0.438-23.78-0.268c-36.84,0.793-73.676,1.747-110.515,2.601c-18.26,0.423-36.551-0.081-54.326,5.678
		c-7.068,2.29-12.252-2.478-12.328-10.029c-0.115-11.401,6.888-16.103,17.356-12.531c4.853,1.656,10.337,1.757,15.561,1.983
		c42.825,1.858,85.647,0.2,128.469-0.332c18.906-0.235,37.804-1.024,56.71-1.265c12.547-0.16,25.12,0.704,37.648,0.23
		c22.876-0.864,45.726-2.398,68.589-3.616c20.248-1.078,40.507-1.977,60.747-3.187c28.446-1.7,56.869-3.802,85.321-5.366
		c16.901-0.929,33.897-0.49,50.744-1.917c12.424-1.052,25.231-0.146,37.167-5.47c4.747-2.117,9.447,3.205,8.93,9.473
		C676.89,746.733,672.529,749.892,663.79,748.571z"/>
	<path d="M316.929,458.701c-0.577,7.733-4.076,13.394-9.776,17.244c-10.727,7.245-21.676,14.188-32.808,20.79
		c-3.279,1.945-7.686,3.624-11.218,3.084c-4.201-0.643-7.905-4.072-12.026-5.816c-5.517-2.334-5.122-6.789-5.328-11.586
		c-0.871-20.245-3.111-40.319-6.738-60.308c-1.566-8.631-0.05-17.788-0.367-26.69c-0.236-6.61-1.624-13.197-1.608-19.792
		c0.008-3.395,1.062-7.552,3.187-10.051c12.25-14.402,27.868-23.219,46.772-25.277c9.981-1.087,14.797,4.03,16.058,14.476
		c3.78,31.294,4.195,63.005,11.559,93.858C315.477,452.158,316.247,455.701,316.929,458.701z M282.113,395.368
		c-2.005,3.452-2.752,5.874-4.38,7.265c-2.227,1.903-5.287,2.795-7.698,4.528c-4.304,3.094-3.798,5.492,1.38,8.148
		c1.042,0.534,1.937,1.354,2.698,1.899c-1.911,4.036-4.806,7.427-4.882,10.88c-0.157,7.196,1.178,14.425,1.898,21.625
		c2.651,1.909,5.215,3.755,8.547,6.154c-4.724,7.596-11.485,14.704-5.01,24.349c8.932-1.258,13.888-8.7,20.835-12.793
		c5.344-3.149,7.905-7.638,7.256-14.037c-0.7-6.908-0.54-13.921-1.523-20.778c-2.022-14.11-4.633-28.134-6.852-42.217
		c-1.393-8.84-2.178-17.791-3.948-26.549c-0.565-2.797-2.941-6.647-5.307-7.383c-6.06-1.885-11.897,0.589-16.582,4.625
		c-4.278,3.686-8.091,7.989-5.083,14.964c3.135-0.694,6.255-1.691,9.442-2.009c3.516-0.351,7.095-0.08,10.668-0.08
		c-0.225,7.737-0.193,7.853-4.434,9.032c-2.864,0.795-5.969,0.842-8.727,1.867c-5.193,1.931-6.047,4.588-4.034,10.511
		C270.629,395.368,274.869,395.368,282.113,395.368z"/>
	<path d="M54.5,36.144c3.635-12.474,7.471-15.691,18.26-13.905c18.909,3.13,37.816,1.086,56.716,0.709
		c17.269-0.344,34.522-1.468,51.791-1.849c18.516-0.409,37.043-0.225,55.562-0.53c20.89-0.343,41.802-0.456,62.659-1.542
		c32.515-1.694,65.009-3.901,97.478-6.346c13.916-1.048,27.705-3.969,41.624-4.748c23.862-1.335,47.802-1.255,71.667-2.544
		c15.859-0.857,31.916-0.075,47.478-4.728c6.519-1.949,10.366,0.529,11.415,5.96c0.99,5.128-2.112,9.07-8.714,9.687
		c-5.244,0.49-10.602-0.404-15.898-0.259c-20.61,0.564-41.24,0.868-61.816,2.07c-30.83,1.802-61.613,4.396-92.432,6.423
		c-17.56,1.155-35.156,1.748-52.724,2.79c-15.249,0.904-30.467,2.499-45.725,3.047c-23.89,0.857-47.814,0.766-71.703,1.662
		c-35.207,1.319-70.394,3.15-105.589,4.766c-7.295,0.335-14.586,0.852-21.885,0.98c-7.346,0.129-14.422,0.378-21.276,4.025
		C64.66,45.39,59.385,41.441,54.5,36.144z"/>
	<path d="M161.107,628.582c-1.846,12.414-1.603,26.989-10.501,39.187c-6.06,8.307-14.18,13.38-24.177,16.176
		c-12.18,3.407-24.352,6.514-37.055,6.594c-17.14,0.108-28.755-9.31-36.503-23.377c-7.398-13.432-6.5-27.6-2.517-42.399
		c4.933-18.33,15.191-32.478,30.554-42.352c15.33-9.852,32.263-11.054,49.132-2.746c4.096,2.017,8.328,3.959,11.982,6.639
		C155.69,596.331,160.686,610.57,161.107,628.582z M89.854,675.81c6.654-0.761,12.524-1.202,18.315-2.132
		c32.28-5.182,49.501-39.027,32.722-67.13c-1.759-2.947-4.851-5.129-7.438-7.544c-9.769-9.12-23.173-5.953-34.436-10.064
		c-0.51-0.186-1.265,0.307-1.907,0.478c-15.557,4.147-22.999,16.228-30.875,30.719c7.471-0.644,13.022-1.194,18.584-1.574
		c2.938-0.201,6.067-0.707,8.783,0.067c1.827,0.521,4.084,2.928,4.291,4.706c0.179,1.544-1.926,4.359-3.592,4.922
		c-4.968,1.678-10.167,2.877-15.367,3.618c-8.72,1.242-14.888,4.997-18.168,12.761c5.11-0.982,9.511-1.771,13.885-2.685
		c3.886-0.812,7.727-2.311,11.62-2.43c2.061-0.063,5.752,1.98,5.92,3.403c0.24,2.033-1.765,4.647-3.416,6.465
		c-0.933,1.027-3.157,0.768-4.659,1.414c-5.917,2.546-11.777,5.221-17.893,7.953c2.925,6.868,6.534,7.398,11.776,5.302
		c5.472-2.189,11.226-3.777,16.974-5.126c2.576-0.605,5.964,0.059,5.743,3.619c-0.132,2.127-1.824,4.651-3.571,6.061
		C94.813,670.497,90.286,669.534,89.854,675.81z"/>
	<path fill="#FFFFFF" d="M463.577,305.054c-6.072-10.089-1.695-17.118,7.084-23.144c-0.659-0.421-1.318-0.843-1.977-1.264
		c-2.336-0.158-4.671-0.316-6.857-0.464c-5.166-10.179,9.172-7.823,9.143-15.511c-3.022-1.251-6.206-2.569-10.917-4.519
		c2.645-2.305,4.525-4.293,6.748-5.763c1.608-1.063,4.143-0.972,5.403-2.248c1.387-1.405,2.813-4.118,2.316-5.638
		c-0.448-1.369-3.427-2.478-5.375-2.634c-2.131-0.171-4.36,0.882-6.568,1.407c-1.275-6.644-1.275-6.644,3.655-13.662
		c-10.163-10.41-5.197-23.477-5.371-35.575c-0.034-2.377,4.724-4.824,7.067-7.043c0.407-6.343-4.968-6.461-9.726-8.909
		c1.2-4.624,2.377-9.161,3.427-13.21c-1.058-4.972-2.455-9.83-3.031-14.784c-0.468-4.023,2.031-5.954,6.137-6.039
		c3.235-0.067,6.461-0.551,10.455-0.92c0,1.281-0.438,3.211,0.077,4.84c2.086,6.607,9.851,8.561,15.223,3.64
		c4.629-4.24,8.292-9.647,13.24-13.407c12.67-9.628,25.914-18.497,38.736-27.931c6.392-4.703,12.362-9.979,19.452-15.751
		c4.191,5.732,8.186,11.194,12.093,16.537c-2.979,8.311-9.87,12.281-15.567,17.081c-8.843,7.451-18.044,14.536-27.538,21.137
		c-6.79,4.721-14.296,8.416-21.507,12.526c-2.889,1.646-5.943,3.022-8.748,4.795c-7.002,4.425-7.885,10.857-2.015,16.292
		c7.526,6.969,15.323,13.644,23.01,20.437c0.748,0.661,1.578,1.228,2.324,1.891c16.123,14.339,32.238,28.687,48.359,43.03
		c2.708,2.409,5.431,4.802,8.289,7.327c-6.297,11.198-12.063,21.453-18.364,32.658c-3.313-2.176-5.835-3.574-8.067-5.339
		c-19.37-15.316-33.425-34.97-45.378-56.255c-1.746-3.109-2.156-6.938-3.5-10.308c-2.415-6.056-6.267-8.374-11.449-7.232
		c-4.556,1.004-7.479,4.609-7.125,10.392c0.831,13.542,2.021,27.064,3.274,40.575c0.857,9.251,2.04,18.472,3.121,27.702
		c0.939,8.014-0.51,10.075-8.34,11.502C477.95,302.519,471.1,303.715,463.577,305.054z"/>
	<path fill="#FFFFFF" d="M336.625,292.59c3.957-1.284,7.121-1.835,9.74-3.337c1.634-0.937,2.444-3.31,3.624-5.039
		c-1.833-1.087-3.704-3.139-5.49-3.067c-4.229,0.171-8.416,1.351-12.511,2.104c-5.438-9.799-7.125-17.03-6.771-29.299
		c3.701-1.392,7.625-2.868,11.036-4.151c3.613,7.147,6.415,14.569,10.798,20.895c5.721,8.257,21.54,9.098,29.231,2.45
		c4.772-4.124,9.248-8.661,14.364-12.299c8.229-5.853,17.397-7.875,27.35-4.688c3.969,1.271,4.934,3.592,3.915,7.626
		c-2.86,11.318-8.63,20.733-17.562,28.186c-10.114,8.441-21.782,13.899-34.476,17.069c-2.948,0.736-6.237,0.109-10.378,0.109
		c2.651-5.328,10.337-5.243,9.056-12.263c-5.343-0.994-9.605,2.042-14.072,3.602C344.219,304.07,344.281,304.245,336.625,292.59z"/>
	<path fill="#FFFFFF" d="M393.777,157.782c-2.934,0.884-5.615,2.047-8.408,2.474c-17.341,2.658-28.214,13.339-35.678,28.361
		c-0.296,0.595-0.56,1.206-0.863,1.798c-5.046,9.868-5.047,9.867-17.525,10.856c-0.692-6.987,3.731-12.303,5.413-18.209
		c14.039-3.305,14.552-3.989,8.528-11.842c5.505-9.442,13.109-17.174,22.325-23.164
		C375.489,142.911,387.114,147.269,393.777,157.782z"/>
	<path fill="#FFFFFF" d="M474.247,101.75c1.165,11.222,2.247,21.648,3.434,33.086c-6.786,0-12.786,0-19.821,0
		c0-2.219-0.174-4.696,0.043-7.138c0.29-3.276,1.136-6.513,1.295-9.788C459.663,108.325,462.25,105.211,474.247,101.75z"/>
	<path fill="#FFFFFF" d="M336.972,241.733c-4.451,0.372-8.29,0.693-13.369,1.117c-0.263-3.774-0.713-6.924-0.63-10.061
		c0.07-2.639,0.892-5.249,1.153-7.895c1.188-12.047,2.679-13.226,16.349-11.36C339.329,222.754,338.179,232.016,336.972,241.733z"/>
	<path fill="#FFFFFF" d="M360.233,634.467c9.234-4.285,10.855-6.343,9.896-11.508c-1.254-6.752-6.504-5.197-11.943-5.251
		c-0.533-4.426-1.073-8.908-1.722-14.29c2.644,1.907,4.549,4.404,6.501,4.441c3.382,0.065,7.195-0.741,10.027-2.482
		c1.462-0.899,2.45-5.562,1.468-6.826c-2.065-2.655-5.364-4.729-8.572-5.968c-1.745-0.674-4.34,0.853-6.949,1.484
		c-1.433-4.662-0.336-8.709,1.599-13.157c6.19-14.227,17.075-24.525,27.515-35.434c6.889-7.199,14.296-8.695,23.323-6.707
		c2.209,0.486,4.815,1.162,6.775,0.458c10.647-3.822,18.47,1.483,26.355,7.333c12.121,8.992,20.793,20.698,25.826,34.703
		c7.521,20.927,12.261,42.114,2.401,63.945c-3.865,8.558-9.381,15.778-17.33,19.962c-15.296,8.051-31.086,14.876-49.125,14.814
		c-14.84-0.051-34.901-8.307-40.592-27.819C363.941,646.18,362.02,640.248,360.233,634.467z M380.119,619.452
		c0,3.907,0.07,5.573-0.011,7.232c-0.618,12.672,9.628,27.023,22.123,30.129c4.062,1.01,8.92,1.778,12.692,0.51
		c22.051-7.413,32.688-16.755,35.864-41.193c1.758-13.523-0.97-26.66-4.699-39.328c-3.574-12.148-13.736-19.341-24.681-24.761
		c-3.547-1.757-8.673-2.175-9.836,3.157c-1.025,4.697-4.14,6.372-7.492,8.527c-2.209,1.42-4.724,3.029-5.952,5.203
		C388.838,585.369,378.149,601.399,380.119,619.452z M375.737,585.718c-1.99-1.877-3.076-3.495-4.551-4.019
		c-0.651-0.231-3.059,1.868-2.963,2.719c0.177,1.578,1.606,3.015,2.514,4.511C372.127,588.036,373.518,587.143,375.737,585.718z
		 M383.468,565.588c-1.68-0.724-3.001-1.762-3.612-1.443c-0.812,0.425-1.533,1.963-1.42,2.918c0.087,0.733,1.843,2.008,2.298,1.802
		C381.664,568.447,382.218,567.194,383.468,565.588z"/>
	<path fill="#FFFFFF" d="M232.6,691.872c-5.92-3.953-10.609-8.921-13.718-16.589c4.551-2.294,8.894-4.501,13.255-6.674
		c2.74-1.365,6.23-2.974,4.353-6.445c-1.109-2.05-4.815-4.115-7.071-3.842c-5.393,0.652-10.62,2.683-17.439,4.583
		c-1.075-2.598-2.613-6.312-4.552-10.996c4.173-2.018,7.894-3.337,11.019-5.512c1.812-1.261,3.715-3.898,3.716-5.916
		c0-3.368-2.616-5.172-6.262-4.671c-1.319,0.181-2.694,0.179-3.946,0.57c-2.954,0.923-6.781,2.126-7.834-1.352
		c-1.032-3.405-1.319-9.075,0.688-10.963c5.215-4.905,5.542-8.515,1.731-14.511c-3.543-5.573,0.261-16.128,6.02-19.638
		c4.468-2.723,7.38-5.837,4.917-11.347c-2.377-5.319,1.101-8.401,4.692-10.622c3.591-2.22,7.844-3.463,11.922-4.78
		c7.958-2.57,8.763-5.684,3.022-12.576c-0.402-0.483-0.633-1.109-1.395-2.483c8.334-7.272,16.32-15.172,28.889-14.411
		c7.21,0.436,14.436,0.798,21.606,1.621c7.162,0.823,10.421,6.94,13.545,12.13c2.611,4.338,3.315,9.823,5.317,16.259
		c-4.234,0-6.715,0.111-9.184-0.018c-14.302-0.751-28.63-1.411-42.329,3.863c-7.085,2.728-14.156,5.467-19.263,11.807
		c-4.586,5.693-7.406,11.766-7.455,19.091c-0.016,2.331,0.29,4.773-0.284,6.973c-3.817,14.623,2.297,26.651,9.81,38.293
		c5.253,8.14,13.242,10.503,22.424,10.001c12.141-0.663,23.365-4.951,34.691-8.82c7.842-2.679,15.709-5.293,23.491-8.141
		c4.838-1.77,7.732,0.428,9.692,4.383c1.997,4.03,5.514,8.321,0.65,12.579c-12.234,10.709-23.922,22.229-37.137,31.572
		c-11.815,8.354-26.356,11.178-40.824,11.145c-5.664-0.013-11.321-3.088-16.98-4.766c1.636,0.085,3.46,0.686,4.873,0.167
		c10.786-3.961,21.578-7.94,32.136-12.455c1.691-0.723,3.479-4.454,3.039-6.261c-0.971-3.983-4.642-2.846-7.409-1.872
		c-9.272,3.262-18.542,6.555-27.677,10.178C232.751,683.246,230.92,686.909,232.6,691.872z"/>
	<path fill="#FFFFFF" d="M571.14,615.922c-2.974-5.709-5.855-11.172-8.659-16.675c-0.597-1.172-0.594-2.769-1.411-3.688
		c-2.716-3.055-2.369-8.932-8.024-9.224c-4.296-0.222-13.242,6.684-13.854,11.586c-0.791,6.336-4.754,12.546-1.011,19.324
		c0.977,1.77,0.301,4.563,0.093,6.86c-1.951,21.508-3.955,43.011-5.966,64.513c-0.685,7.329-1.353,8.459-8.631,9.863
		c-5.107,0.985-10.411,0.943-17.094,1.477c0-5.261-0.315-9.455,0.054-13.588c1.741-19.503,2.97-39.092,5.772-58.448
		c1.933-13.353,2.522-26.879,7.212-40.036c3.591-10.074,3.208-21.563,4.613-32.42c0.167-1.288,0.467-2.559,0.91-4.931
		c4.558,2.101,8.653,3.92,12.688,5.864c7.163,3.451,14.075,7.546,21.484,10.329c9.001,3.381,17.66,3.674,25.74-3.887
		c11.356-10.626,23.413-20.527,35.475-30.365c5.303-4.325,11.357-7.729,18.353-12.408c1.16,9.105,2.463,16.453,2.951,23.854
		c0.696,10.551,1.021,21.14,1.088,31.716c0.077,12.258-1.127,24.575-0.292,36.765c1.451,21.168,4.038,42.259,6.156,63.382
		c0.265,2.647,1.195,5.418,0.679,7.895c-0.453,2.175-2.084,5.128-3.917,5.819c-8.567,3.229-17.385,5.795-27.419,9.017
		c-0.867-4.971-1.789-8.404-2.021-11.883c-1.496-22.474,1.12-44.839,1.913-67.255c0.423-11.956,0.951-23.927,0.762-35.88
		c-0.127-8.084-3.67-9.818-11.024-6.15c-2.018,1.006-3.987,2.454-5.465,4.147c-9.361,10.722-18.566,21.581-27.871,32.353
		C573.832,614.538,572.832,614.876,571.14,615.922z"/>
	<path fill="#FFFFFF" d="M78.834,142.612c-19.706,12.75-40.854,14.098-61.639,19.452c-0.415-3.255-0.775-6.083-1.227-9.626
		c5.733-1.468,10.959-2.805,17.192-4.401c-4.311-5.019-8.542-3.724-12.593-3.151c-5.383,0.762-6.338-2.067-5.394-7.238
		c2.38-0.438,4.95-0.662,7.344-1.434c1.745-0.563,4.731-2.017,4.643-2.786c-0.832-7.294,5.241-7.193,9.007-7.554
		c9.336-0.897,18.023-3.47,26.882-6.383c11.258-3.703,23.085-5.651,34.605-8.597c5.746-1.469,11.345-3.504,17.028-5.226
		c3.784-1.146,7.536-2.673,11.413-3.18c7.599-0.994,13.707,1.338,16.75,9.15c1.058,2.715,2.556,5.259,4.354,8.893
		c-8.498,4.047-16.459,7.878-24.458,11.63c-3.58,1.679-7.222,3.23-10.857,4.789c-6.252,2.682-10.575,6.614-10.567,14.147
		c0.002,2.169-1.768,4.283-2.272,6.524c-0.564,2.51-1.619,5.569-0.725,7.641c6.31,14.624,6.313,30.523,9.671,45.727
		c5.258,23.81,12.576,46.778,23.553,68.644c7.917,15.77,7.497,16.021-7.741,25.084c-4.281,2.547-8.757,4.768-13.046,7.302
		c-4.244,2.507-8.366,5.223-13.635,8.534c-4.091-8.129-3.39-15.975-2.758-23.611c0.112-1.351,3.469-2.545,5.44-3.6
		c2.501-1.338,4.769-2.634,2.705-6.711c-2.501,0.25-5.205,0.519-8.625,0.861c-0.385-4.78-0.723-8.995-1.092-13.572
		c3.328-1.853,6.366-3.546,9.458-5.268c-1.221-6.275-6.175-2.648-10.016-4.874c-0.704-5.327-1.013-11.607-2.467-17.611
		c-1.607-6.635,2.492-11.022,5.936-15.482c-3.523-3.02-6.946-4.791-8.467-7.593c-1.434-2.642-0.864-6.372-1.127-9.116
		c1.177-0.982,1.601-1.584,2.159-1.759c2.975-0.935,7.747-0.07,7.639-4.606c-0.15-6.355-6.459-2.557-10.222-5.275
		c-0.579-11.478-1.144-23.656-1.834-35.827c-0.263-4.643-0.553-9.315-1.332-13.888C82.057,149.89,80.621,147.326,78.834,142.612z"/>
	<path fill="#FFFFFF" d="M594.206,335.458c-9.537,14.398-21.663,24.504-35.115,33.268c-4.118,2.683-8.365,5.208-9.345,10.963
		c-1.15,6.751,0.033,10.777,6.524,12.374c13.068,3.216,23.022,11.186,33.243,19.188c4.293,3.361,9.879,5.093,14.92,7.473
		c7.934,3.747,16.799,5.845,23.914,13.02c-7.334,10.141-15.881,18.117-25.199,27.178c-8.037-8.788-15.261-16.902-22.722-24.792
		c-10.26-10.851-20.688-21.542-31.065-32.281c-3.011-3.116-6.603-4.776-10.75-2.65c-4.273,2.191-6.283,5.765-5.001,10.735
		c0.659,2.554,0.885,5.271,1.881,7.677c7.585,18.319,10.473,37.724,13.196,57.137c1.127,8.042-1.144,10.711-8.833,12.891
		c-2.812,0.797-5.503,2.017-8.272,2.978c-4.251,1.475-8.521,2.894-13.163,4.465c-4-9.659-4.356-18.603-3.254-27.443
		c0.428-3.439,0.824-5.836-1.174-9.097c-4.089-6.674-2.589-9.844,4.74-12.746c1.233-0.488,2.817-0.504,3.715-1.316
		c1.096-0.993,1.638-2.597,2.42-3.936c-1.545-0.848-3.087-2.381-4.637-2.39c-2.561-0.016-5.127,0.952-7.479,1.459
		c-3.069-2.692-2.678-4.985,0.263-6.572c1.689-0.911,4.387-0.389,5.639-1.567c1.709-1.608,3.499-4.269,3.399-6.391
		c-0.147-3.136-3.164-3.871-6.114-3.312c-1.591,0.301-3.152,0.758-6.11,1.485c-0.847-10.889-4.017-21.274,2.421-31.321
		c-0.084-0.318-0.087-0.683-0.253-0.945c-1.955-3.098-7.704-5.447-4.517-9.572c2.254-2.916,7.293-3.727,11.156-5.316
		c0.833-0.342,1.971-0.108,2.934,0.06c11.594,2.019,12.368,1.111,16.186-10.357c3.805-11.432,9.963-21.812,18.273-30.562
		c2.5-2.633,6.742-4.414,10.427-4.962C575.754,328.895,584.964,329.66,594.206,335.458z"/>
	<path fill="#FFFFFF" d="M503.6,343.779c3.382-0.894,6.162-1.629,9.742-2.574c1.186,5.525,2.245,10.562,3.352,15.589
		c2.171,9.855,1.515,10.755-10.492,12.474C505.347,360.89,504.496,352.555,503.6,343.779z"/>
	<path fill="#FFFFFF" d="M193.308,280.504c3.151-1.368,5.935-2.288,8.419-3.728c3.218-1.864,8.614-3.028,6.389-8.254
		c-1.819-4.271-6.089-2.741-9.652-1.49c-3.097,1.088-6.251,2.015-9.274,2.979c-3.273-5.403-3.273-5.403,7.125-11.389
		c-2.478-7.926-8.911,0.163-13.375-4.512c0.07,0.157-0.864-1.273-1.216-2.835c-1.938-8.587-2.271-17.435-4.598-26.017
		c-0.827-3.048,1.36-6.913,2.363-11.23c-0.171-0.362-0.773-1.533-1.288-2.743c-3.603-8.459-2.579-11.302,5.481-14.839
		c3.015-1.323,6.125-2.431,10.545-4.17c1.459,11.097,2.538,22.115,4.453,32.985c1.601,9.087,3.667,18.166,6.48,26.943
		c2.525,7.878,9.589,11.674,16.812,14.577c4.035,1.622,11.43-1.167,13.715-5.551c5.206-9.988,9.715-20.273,10.855-31.736
		c1.346-13.531,3.085-27.023,4.473-40.55c1.184-11.543,2.101-23.114,3.167-34.669c0.152-1.648,0.398-3.298,0.74-4.917
		c2.161-10.239,3.794-11.68,12.787-11.404c8.69,0.266,13.788,4.463,14.6,13.041c0.56,5.914,0.629,11.995-0.06,17.887
		c-2.699,23.106-5.615,46.19-8.786,69.236c-2.285,16.608-8.011,32.154-16.1,46.804c-1.249,2.262-3.004,4.43-4.999,6.061
		c-7.867,6.431-16.914,10.361-26.936,12.17c-13.336,2.407-22.165-3.954-28.741-14.623
		C195.338,286.343,194.648,283.75,193.308,280.504z"/>
	<path fill="#FFFFFF" d="M192.313,185.024c-6.138,0.612-11.244,1.122-16.792,1.675c-0.337-2.865-0.872-5.755-0.98-8.661
		c-0.303-8.108,5.694-12.913,13.423-10.313c1.866,0.628,3.783,3.513,4.16,5.63C192.796,177.134,192.313,181.119,192.313,185.024z"/>
	<path fill="#FFFFFF" d="M114.851,425.6c4.097-5.723,10.436-7.754,17.092-9.24c2.911-0.65,5.906-1.018,8.721-1.945
		c0.929-0.306,2.168-2.193,1.935-2.948c-0.4-1.302-1.749-3.109-2.865-3.234c-2.569-0.289-5.363-0.116-7.841,0.624
		c-6.026,1.798-11.924,4.025-19.054,6.487c-1.167-4.82-2.273-9.386-3.571-14.748c4.299-1.334,7.816-2.113,11.031-3.561
		c1.477-0.665,2.364-2.641,3.518-4.022c-1.642-1.23-3.179-3.288-4.948-3.51c-3.185-0.4-6.508,0.299-9.648,0.53
		c0.995-4.397,1.22-8.913,3.076-12.61c1.851-3.687,4.759-7.499,8.211-9.608c11.342-6.93,23.378-12.018,36.836-14.136
		c15.06-2.371,29.66-2.424,44.256,2.162c9.95,3.127,12.235,8.761,5.64,16.96c-5.161,6.416-11.415,11.96-17.259,17.815
		c-1.393,1.395-3.285,2.308-4.608,3.753c-2.688,2.934-6.414,6.49-3.601,10.331c2.011,2.746,6.401,3.965,9.946,5.282
		c1.725,0.641,3.962-0.267,5.937-0.104c7.689,0.631,15.521,1.275,19.685,9.238c4.608,8.811,5.842,18.271-0.087,26.533
		c-5.161,7.191-11.099,14.883-18.528,19.184c-20.885,12.091-42.712,22.556-64.189,33.62c-1.128,0.581-2.458,0.772-3.962,1.226
		c-4.028-4.422-3.887-9.919-4.539-15.027c-0.527-4.134,0.219-7.938,5.165-9.525c2.533-0.813,5.068-2.27,2.958-6.56
		c-1.497-0.075-3.415,0.092-5.194-0.33c-1.985-0.471-3.843-1.476-5.756-2.249c1.062-1.884,1.683-4.389,3.278-5.522
		c3.203-2.273,7.028-3.644,10.431-5.664c5.213-3.095,12.105-3.725,16.323-11.062c-2.89-0.7-5.112-2.018-6.735-1.491
		c-5.658,1.837-11.127,4.271-16.633,6.563c-2.949,1.228-5.826,2.629-9.999,4.527c-0.571-4.752-0.988-8.225-1.289-10.73
		c5.202-9.413,17.679-7.712,22.319-17.308c-4.682-3.827-8.532,0.294-12.429,0.454c-4.184,0.172-8.323,1.439-12.482,2.228
		C115.613,427.187,115.232,426.393,114.851,425.6z"/>
	<path fill="#FFFFFF" d="M385.064,482.929c1.09-1.947,1.858-2.74,1.951-3.605c0.191-1.782,0.472-3.805-0.207-5.315
		c-0.295-0.657-3.035-0.769-4.368-0.295c-3.299,1.173-6.398,3.414-10.764,0.187c5.336-5.426,15.581-5.825,15.866-16.873
		c-4.551,1.074-8.309,1.725-11.905,2.879c-3.325,1.067-6.476,2.672-10.527,4.389c-1.041-8.412,8.741-7.256,9.271-13.399
		c-2.229-8.219-8.755-1.938-13.707-3.528c-3.783-5.461-3.282-12.52-2.939-18.681c0.836-14.994,4.561-29.471,11.888-42.881
		c5.281-9.665,14.056-14.692,23.506-18.996c1.125-0.512,3.213-0.946,3.761-0.372c5.044,5.28,12.521,3.947,18.295,7.051
		c0.746,0.401,1.181,1.379,2.437,2.921c-4.659,1.157-8.646,2.518-12.743,3.098c-15.067,2.132-25.013,11.44-31.897,23.896
		c-7.987,14.453-4.63,28.344,5.15,40.844c3.254,4.159,7.223,7.812,11.155,11.377c7.449,6.755,17.516,7.862,25.478,1.582
		c6.134-4.838,11.364-11.01,16.231-17.191c2.618-3.325,5.04-5.155,9.087-4.146c5.792,1.443,11.577,2.943,17.288,4.673
		c4.271,1.294,5.358,4.142,4.09,8.548c-6.333,21.991-21.425,35.199-43.034,39.685C407.738,490.996,396.036,489.541,385.064,482.929z
		"/>
	<path fill="#FFFFFF" d="M282.113,395.368c-7.244,0-11.484,0-15.736,0c-2.013-5.922-1.159-8.579,4.034-10.511
		c2.758-1.025,5.864-1.072,8.727-1.867c4.242-1.178,4.209-1.295,4.434-9.032c-3.573,0-7.152-0.271-10.668,0.08
		c-3.187,0.318-6.306,1.315-9.442,2.009c-3.007-6.975,0.806-11.279,5.083-14.964c4.685-4.037,10.522-6.511,16.582-4.625
		c2.366,0.736,4.742,4.586,5.307,7.383c1.769,8.758,2.555,17.708,3.948,26.549c2.219,14.083,4.829,28.107,6.852,42.217
		c0.983,6.857,0.823,13.87,1.523,20.778c0.649,6.399-1.912,10.888-7.256,14.037c-6.948,4.094-11.904,11.536-20.835,12.793
		c-6.475-9.645,0.286-16.753,5.01-24.349c-3.332-2.399-5.896-4.245-8.547-6.154c-0.72-7.2-2.055-14.429-1.898-21.625
		c0.075-3.452,2.971-6.843,4.882-10.88c-0.762-0.545-1.657-1.365-2.698-1.899c-5.177-2.656-5.684-5.054-1.38-8.148
		c2.411-1.733,5.471-2.625,7.698-4.528C279.361,401.241,280.108,398.819,282.113,395.368z"/>
	<path fill="#FFFFFF" d="M89.854,675.81c0.432-6.276,4.958-5.313,7.291-7.196c1.746-1.41,3.439-3.935,3.571-6.061
		c0.221-3.56-3.167-4.224-5.743-3.619c-5.748,1.349-11.502,2.938-16.974,5.126c-5.242,2.096-8.851,1.566-11.776-5.302
		c6.116-2.732,11.976-5.407,17.893-7.953c1.502-0.646,3.726-0.387,4.659-1.414c1.65-1.818,3.656-4.432,3.416-6.465
		c-0.168-1.422-3.859-3.466-5.92-3.403c-3.894,0.119-7.734,1.618-11.62,2.43c-4.374,0.914-8.775,1.703-13.885,2.685
		c3.28-7.765,9.448-11.519,18.168-12.761c5.2-0.741,10.399-1.94,15.367-3.618c1.667-0.563,3.771-3.378,3.592-4.922
		c-0.206-1.779-2.464-4.186-4.291-4.706c-2.717-0.775-5.846-0.268-8.783-0.067c-5.562,0.38-11.113,0.929-18.584,1.574
		c7.876-14.491,15.317-26.572,30.875-30.719c0.642-0.171,1.398-0.664,1.907-0.478c11.263,4.111,24.667,0.944,34.436,10.064
		c2.587,2.415,5.679,4.598,7.438,7.544c16.779,28.103-0.442,61.948-32.722,67.13C102.378,674.608,96.509,675.049,89.854,675.81z"/>
	<path d="M380.119,619.452c-1.97-18.052,8.719-34.083,18.007-50.524c1.228-2.174,3.743-3.783,5.952-5.203
		c3.353-2.155,6.468-3.83,7.492-8.527c1.163-5.331,6.288-4.913,9.836-3.157c10.945,5.42,21.107,12.614,24.681,24.761
		c3.728,12.669,6.456,25.805,4.699,39.328c-3.176,24.439-13.813,33.781-35.864,41.193c-3.772,1.268-8.63,0.5-12.692-0.51
		c-12.495-3.106-22.741-17.458-22.123-30.129C380.189,625.025,380.119,623.359,380.119,619.452z M427.72,576.595
		c-3.395,1.96-7.225,3.069-9.391,5.602c-12.6,14.733-19.432,31.616-17.514,51.384c0.521,5.368,6.418,10.664,11.521,9.501
		c6.435-1.467,12.543-3.715,17.133-9.217C441.65,619.264,441.477,593.348,427.72,576.595z"/>
	<path d="M375.737,585.718c-2.219,1.425-3.61,2.318-5,3.211c-0.908-1.496-2.338-2.933-2.514-4.511
		c-0.095-0.851,2.313-2.95,2.963-2.719C372.66,582.223,373.747,583.841,375.737,585.718z"/>
	<path d="M383.468,565.588c-1.25,1.605-1.804,2.859-2.733,3.278c-0.455,0.205-2.211-1.069-2.298-1.802
		c-0.114-0.956,0.607-2.493,1.42-2.918C380.467,563.826,381.788,564.864,383.468,565.588z"/>
	<path d="M232.6,691.872c-1.679-4.963,0.152-8.626,4.742-10.446c9.135-3.623,18.404-6.915,27.677-10.178
		c2.767-0.974,6.438-2.11,7.409,1.872c0.441,1.807-1.348,5.538-3.039,6.261c-10.558,4.515-21.35,8.494-32.136,12.455
		c-1.413,0.519-3.238-0.082-4.873-0.167C232.378,691.666,232.6,691.872,232.6,691.872z"/>
	<path fill="#FFFFFF" d="M427.72,576.595c13.757,16.753,13.93,42.669,1.75,57.269c-4.59,5.502-10.698,7.751-17.133,9.217
		c-5.103,1.163-11-4.132-11.521-9.501c-1.918-19.768,4.913-36.651,17.514-51.384C420.496,579.665,424.325,578.555,427.72,576.595z"
		/>
</g>
</svg>
